<?xml version="1.0" standalone="no"?>
<!DOCTYPE svg PUBLIC "-//W3C//DTD SVG 1.1//EN" "http://www.w3.org/Graphics/SVG/1.1/DTD/svg11.dtd" >
<!--
2013-9-30: Created.
-->
<svg>
<metadata>
Created by iconfont
</metadata>
<defs>

<font id="iconfont" horiz-adv-x="1024" >
  <font-face
    font-family="iconfont"
    font-weight="500"
    font-stretch="normal"
    units-per-em="1024"
    ascent="896"
    descent="-128"
  />
    <missing-glyph />
    
    <glyph glyph-name="shijian" unicode="&#58896;" d="M512 832c247.424 0 448-200.576 448-448S759.424-64 512-64 64 136.57600000000002 64 384 264.576 832 512 832z m-0.007-256C494.323 576 480 561.659 480 543.967v-147.374a64 64 0 0 1 18.888-45.398l108.583-107.898c12.54-12.462 32.797-12.386 45.244 0.171 12.447 12.557 12.37 32.839-0.171 45.3l-99.114 98.49a32 32 0 0 0-9.445 22.7v134.01c0 17.69-14.323 32.032-31.992 32.032z"  horiz-adv-x="1024" />

    
    <glyph glyph-name="ren" unicode="&#58924;" d="M678.85522919 353.07623291000004C771.03326874 353.07623291000004 845.71008759 276.99041748 845.71008759 183.18090819999998V42.132934569999975c0-16.01806641-12.75512695-28.99566651-28.4765625-28.9956665H206.76721649A28.69903565 28.69903565 0 0 0 178.29065399 42.132934569999975V183.25506592c0 93.80950927 74.67681885 169.89532471 166.85485841 169.89532471h333.70971679zM514.37341766 754.78857422c100.48370362 0 181.98303223-83.05664063 181.98303224-185.39428711S614.85712128 384 514.29925994 384C413.81555634 384 332.31622773 467.05664063 332.31622773 569.39428711S413.81555634 754.78857422 514.29925994 754.78857422z"  horiz-adv-x="1024" />

    
    <glyph glyph-name="guanbi" unicode="&#58991;" d="M512 390.93248m-431.83616 0a431.83616 431.83616 0 1 1 863.67232 0 431.83616 431.83616 0 1 1-863.67232 0ZM720.6912 234.4448l-52.20352-52.20352L512 338.72896l-156.48768-156.48768L303.3088 234.4448l156.4928 156.48768L303.3088 547.42016l52.16256 52.1984 156.5184-156.49792 156.49792 156.49792 52.20352-52.1984-156.50304-156.4928z"  horiz-adv-x="1024" />

    
    <glyph glyph-name="sousuo" unicode="&#58892;" d="M915.8 43.1L766.9 189.3c47.4 62.8 75.9 140.7 75.9 225.5 0 207-167.8 374.9-374.9 374.9-207.1-0.1-374.9-167.9-374.9-375s167.8-374.9 374.9-374.9c95.4 0 182.2 35.9 248.4 94.6L865.4-12c14.7-14.4 37.8-13.8 51.7 1.4 13.9 15.2 13.3 39.3-1.3 53.7zM467.9 106c-170.5 0-308.7 138.2-308.7 308.7s138.2 308.7 308.7 308.7 308.7-138.2 308.7-308.7S638.4 106 467.9 106z m0 0"  horiz-adv-x="1024" />

    
    <glyph glyph-name="dizhi" unicode="&#59447;" d="M511.997953 896c-221.834911 0-402.285934-186.590762-402.285934-415.988808 0-58.095234 11.326795-114.200169 33.701027-166.926201 0.826818-2.728091 1.824526-5.471531 3.017682-8.104456 1.949367-4.330563 48.827298-107.799491 109.811279-184.586137 90.604129-114.10091 211.251024-226.78354 216.262074-231.537745 11.812858-11.260281 26.848055-16.848467 41.867904-16.848467 31.60533 3.178338 76.731388 53.519082 87.337788 64.008826 43.875598 44.266495 110.18785 114.056909 166.01138 184.378409 60.983981 76.786646 107.861912 180.256598 109.848117 184.586137 1.180876 2.632925 2.190864 5.376365 3.006426 8.104456 22.367069 52.726032 33.712284 108.830967 33.712284 166.926201C914.286957 709.410261 733.800119 896 511.997953 896zM512.148377 313.086014c-90.479287 0-164.040524 75.254781-164.040524 167.712088 0 92.494145 73.564306 167.697762 164.040524 167.697762 90.42096 0 164.018012-75.203617 164.018012-167.697762C676.166389 388.339772 602.568314 313.086014 512.148377 313.086014z"  horiz-adv-x="1024" />

    
    <glyph glyph-name="news" unicode="&#58914;" d="M63.085292 495.908766h34.478256l114.419959-166.444847h1.261737V495.908766h34.171264v-223.831858h-33.230846L98.503966 440.43022h-1.24741v-168.353312H63.084269l0.001023 223.831858zM291.619242 495.908766h160.808476v-29.147854H325.790506v-65.214281h119.116935v-29.147853H325.790506v-71.15969h131.966591v-29.16218H291.619242V495.908766zM472.176504 495.908766h38.562271l43.568285-174.289512h1.26276l45.757136 174.289512h35.739993l45.771463-174.289512h1.262759l43.566238 174.289512h38.562271l-64.581877-223.831858H665.292803l-45.461401 172.729993h-1.25355l-45.459354-172.729993h-36.681434l-64.26056 223.831858zM929.258731 483.689467c15.667841-11.496845 24.551162-29.470195 26.63359-53.919027h-33.846876c-3.139503 14.830777-9.004071 25.287943-17.561981 31.352055-8.578376 6.476505-21.319561 9.705036-38.237883 9.705036-14.638395 0-25.916253-2.186805-33.859155-6.578836-9.619078-5.021364-14.422478-13.171997-14.422478-24.449855 0-10.029424 5.536087-17.972327 16.60826-23.830754 5.430686-3.131317 18.398022-7.725962 38.881542-13.791098 30.92943-9.618055 50.465368-16.931624 58.620096-21.939685 19.218714-11.715833 28.840862-27.812439 28.840862-48.281633 0-19.850094-7.838525-35.624359-23.508413-47.341215-15.685237-11.277858-37.626969-16.918321-65.849754-16.918321-26.962072 0-48.26526 5.435803-63.948451 16.302291-18.383696 13.157671-28.516474 33.859155-30.409591 62.058404h33.859156c2.514263-17.769712 8.78406-30.401404 18.809391-37.918611 9.197476-6.89913 23.100114-10.338463 41.689495-10.338462 16.522302 0 30.001291 2.90619 40.442084 8.755408 10.042727 5.665023 15.051811 13.481036 15.051811 23.520693 0 12.334933-7.108908 22.144346-21.323655 29.459962-5.214768 2.524496-20.056801 7.546883-44.50768 15.063067-28.002774 8.985652-45.13906 15.141862-51.408856 18.489096-17.136286 10.234085-25.714661 25.180496-25.714662 44.830022 0 19.634176 8.256034 35.110659 24.775267 46.388516 15.665795 10.659781 35.417651 15.990183 59.251475 15.990183 26.330692 0.002047 46.713928-5.535063 61.136406-16.607236zM313.614186 540.945495h525.950733c-59.473533 128.405485-189.517331 217.739093-340.090699 217.739093-150.575414 0-280.602839-89.333608-340.090698-217.739093H313.614186z m474.698442 30.072923H674.60182c-24.842805 62.651922-62.23339 114.972545-109.342314 151.219073 93.307106-18.113543 173.043125-74.154907 223.053122-151.219073zM514.509658 719.756997c55.212486-29.927613 99.29447-82.32089 127.815038-148.739603H514.509658V719.756997zM484.452085 571.018418h-127.810944c28.531823 66.416666 72.598458 118.810966 127.810944 148.739602V571.018418z m-50.732451 151.220096c-47.108924-36.247552-84.495416-88.568175-109.341291-151.219073H210.63479c50.028417 77.063143 129.750109 133.104507 223.084844 151.219073zM685.376211 227.055528H159.385569C218.873428 98.640834 348.900853 9.315412 499.476267 9.315412c150.572344 0 280.616142 89.325421 340.089675 217.740116H685.376211z m-474.741421-30.073946H324.378343c24.832572-62.646805 62.23032-114.965381 109.325941-151.22112-93.319385 18.119683-173.041078 74.169233-223.069494 151.22112z m273.817295-148.752905c-55.212486 29.927613-99.281167 82.33624-127.810944 148.752905h127.810944v-148.752905z m30.057573 148.752905h127.815038c-28.520567-66.416666-72.602551-118.825292-127.815038-148.752905V196.981582z m50.749848-151.22112c47.107901 36.257785 84.498486 88.576361 109.342314 151.22112h113.710808c-50.009997-77.051887-129.746016-133.101437-223.053122-151.22112z"  horiz-adv-x="1024" />

    
    <glyph glyph-name="dizhi1" unicode="&#59061;" d="M512.00256 25.00352a20.65536 20.65536 0 0 0-15.09888 6.55744c-12.19712 13.03808-298.66624 321.31328-298.66624 489.39264 0 173.02144 140.75008 313.7856 313.76256 313.7856 173.01376 0 313.77152-140.76544 313.77152-313.7856 0-168.07808-286.47296-476.35584-298.66752-489.39008a20.6528 20.6528 0 0 0-15.10144-6.56z m0 768.38528c-150.20416 0-272.41088-122.20672-272.41088-272.43392 0-131.47776 213.14816-378.42688 272.41088-444.53504 59.26016 66.12352 272.41856 313.13536 272.41856 444.53376 0 150.22848-122.21312 272.4352-272.41856 272.4352zM939.31904-66.7392H84.67584a20.66944 20.66944 0 0 0-17.87136 10.28736 20.6528 20.6528 0 0 0-0.09088 20.6272l131.14624 230.0992c5.66272 9.91872 18.29504 13.36064 28.20096 7.72224 9.92128-5.6512 13.37728-18.28096 7.72096-28.19968l-113.5232-199.1872h782.84672l-117.52192 198.912c-5.8112 9.8368-2.54976 22.49856 7.26912 28.31488 9.78816 5.81248 22.5024 2.55104 28.3328-7.2832l135.936-230.10304a20.64384 20.64384 0 0 0 0.15872-20.75648 20.6592 20.6592 0 0 0-17.96096-10.43328zM512.00256 387.95648c-66.5216 0-120.64768 54.12352-120.64768 120.65408 0 66.54976 54.12608 120.672 120.64768 120.672 66.52928 0 120.65536-54.12608 120.65536-120.672-0.00128-66.53056-54.1248-120.65408-120.65536-120.65408z m0 199.97824c-43.72352 0-79.29728-35.57888-79.29728-79.32416 0-43.72224 35.57376-79.30624 79.29728-79.30624 43.72864 0 79.30496 35.584 79.30496 79.30624 0 43.74528-35.57504 79.32416-79.30496 79.32416z"  horiz-adv-x="1024" />

    
    <glyph glyph-name="hezuohuoban" unicode="&#59072;" d="M948.993 685.962c-42.08 76.428-101.366 125.1-170.918 139.852-68.612 14.598-135.424-6.423-171.329-33.688-67.509-51.243-208.13-200.062-273.935-270.969 22.02-28.965 80.33-84.276 184.883-44.075 24.51 9.4 88.22 67.994 125.65 106.581l19.295 19.924 19.73-19.496c1.503-1.504 125.4-124.098 201.491-200.711 139.877 146.97 68.368 296.058 65.133 302.582zM278.238 818.277C247.405 817.005 141.59 803.372 74.762 681.65c-2.76-6.175-83.147-187.838 91.407-313.171l65.292 62.653c29.751 28.543 84.788 23.08 118.092-11.601 15.865-16.467 25.714-37.219 27.714-58.431 0.011-0.127 0.005-0.248 0.016-0.375 21.481-2.233 43.347-12.218 59.866-29.429 15.865-16.493 25.72-37.246 27.714-58.431 0.016-0.148 0.005-0.285 0.021-0.433 21.465-2.233 43.315-12.197 59.84-29.345 16.477-17.153 25.677-38.254 27.513-58.827 21.555-2.19 43.51-12.192 60.1-29.435 15.88-16.53 25.718-37.283 27.713-58.463 1.937-20.409-3.774-39.763-15.744-54.261l8.735-0.264c25.207-0.243 43.22 4.549 53.406 15.96 15.005 16.789 11.263 43.891 11.226 44.154l-0.317 2.201-145.864 145.781 38.813 38.771 153.833-153.749-2.206-2.206c17.348 0.195 30.485 4.629 38.935 13.369 13.363 13.812 15.533 37.737 15.058 51.939L650.88 342.982l38.808 38.776 145.96-145.837-1.083-1.082 3.9-2.787c6.328-4.476 27.044 1.926 42.671 20.056 9.537 11.062 22.647 32.617 3.22 52.594-46.984 48.366-172.628 173.044-221.142 221.115-32.058-31.598-91.022-86.578-125.824-99.941-131.539-50.482-218.333 16.451-254.107 69.694l-26.495 24.062c6.34 6.961 112.835 123.897 208.306 217.932-29.238 27.47-100.636 84.439-186.855 80.713zM131.72 248.334c0.83-8.751 5.441-18.103 12.651-25.603 11.28-11.669 27.978-16.599 37.32-12.097 1.261 1.441 2.512 2.887 3.911 4.228l133.445 128.035c0.618 0.586 1.304 1.071 1.942 1.636 1.911 3.995 1.9 8.613 1.641 11.426-0.834 8.756-5.44 18.082-12.662 25.576-8.418 8.756-19.238 13.981-28.954 13.981-3.378 0-8.133-0.697-11.548-3.969L136.048 263.55c-4.597-4.423-4.692-11.437-4.328-15.216z m100.247-113.832c8.402-8.756 19.211-13.955 28.928-13.955 2.417 0 5.521 0.391 8.344 1.773 1.267 1.457 2.533 2.919 3.948 4.275l133.445 128.03c0.612 0.586 1.298 1.071 1.926 1.626 1.942 4.006 1.926 8.65 1.663 11.479-0.829 8.756-5.44 18.071-12.65 25.571-8.409 8.756-19.239 13.981-28.955 13.981v-0.005c-2.407 0-5.489-0.401-8.307-1.768-1.283-1.473-2.56-2.956-3.974-4.312L222.88 173.167c-0.586-0.565-1.235-1.056-1.847-1.599-4.25-8.735-1.427-24.225 10.934-37.066z m87.591-88.246c8.413-8.756 19.243-13.976 28.96-13.976 2.407 0 5.5 0.396 8.323 1.773 1.283 1.473 2.56 2.95 3.974 4.307l133.392 128.03c0.586 0.559 1.24 1.019 1.842 1.552 4.296 8.729 1.478 24.257-10.899 37.14-8.402 8.735-19.217 13.928-28.933 13.928-3.288 0-6.075-0.649-8.413-1.826-1.26-1.441-2.512-2.892-3.9-4.222L310.47 84.932c-0.586-0.559-1.224-1.05-1.83-1.589-4.282-8.718-1.464-24.224 10.918-37.087z m28.954-68.817h0.005-0.005z m45.986 6.154c0.83-8.756 5.441-18.071 12.651-25.571 8.43-8.756 19.254-13.981 28.97-13.981 3.394 0 8.133 0.67 11.553 3.964l133.376 128.003c4.634 4.417 4.718 11.437 4.37 15.211-0.834 8.756-5.44 18.103-12.65 25.603-8.419 8.73-19.244 13.949-28.976 13.949v0.005c-3.25 0-6.01-0.644-8.334-1.8-1.277-1.457-2.549-2.924-3.969-4.286L398.097-3.34c-0.633-0.602-1.319-1.124-1.974-1.699-1.889-3.985-1.884-8.566-1.625-11.368z m191.08-42.846c22.32 9.294 20.957 57.708 19.374 70.164l-1.356 10.672-72.106-69.203c16.092-12.092 35.06-19.597 54.087-11.633z m338.176 402.145c34.253-35.245 33.852-86.124-1.019-126.562-18.52-21.497-45.885-38.048-72.797-40.302-2.354-21.154-9.648-47.21-29.266-67.694-17.232-17.997-40.222-28.067-68.57-30.105-2.1-17.137-8.28-38.291-24.225-56.42-16.229-18.451-38.755-29.646-67.17-33.424-1.342-36.739-13.813-81.516-53.993-98.252-9.469-3.953-22.399-7.6-37.784-7.6v-0.005c-21.77 0-48.498 7.368-77.384 31.519l-5.858-5.621c-12.962-12.398-30.553-19.227-49.569-19.227-24.71 0-49.707 11.226-68.538 30.796-15.744 16.382-25.539 36.929-27.65 57.924-21.835 2.264-43.3 13.01-59.952 30.337-16.245 16.878-25.408 37.615-27.429 57.914-21.919 2.206-43.468 12.957-60.15 30.326-16.246 16.884-25.409 37.615-27.435 57.908-21.919 2.211-43.463 12.962-60.183 30.353-15.865 16.499-25.719 37.251-27.714 58.436-2.196 23.191 5.441 45.015 20.964 59.903l27.914 26.785C-75.324 481.831 24.738 704.091 25.81 706.392 107.3 854.937 237.868 871.499 275.963 873.072 385.204 877.848 470.5 808.719 504.72 775.791c26.072 24.558 49.94 45.68 68.823 60.014 42.518 32.242 124.573 62.996 215.953 43.658 59.72-12.667 144.275-52.082 208.063-167.983 1.414-2.734 93.73-191.01-75.162-367.2 0.44-0.449 0.93-0.955 1.357-1.388z"  horiz-adv-x="1024" />

    
    <glyph glyph-name="canting" unicode="&#58901;" d="M378.753 565.479c11.177 0 18.626 7.446 18.626 18.613V732.987c0 11.168-7.45 18.615-18.626 18.615-11.177 0-18.626-7.447-18.626-18.615v-148.895c0-11.167 7.45-18.613 18.626-18.613z m-74.509 0c11.177 0 18.627 7.446 18.627 18.613V732.987c0 11.168-7.45 18.615-18.627 18.615-11.176 0-18.628-7.447-18.628-18.615v-148.895c0-11.167 7.452-18.613 18.628-18.613z m149.018 186.123c-11.176 0-18.627-7.447-18.627-18.615v-266.15c0-9.307-3.726-18.614-11.176-26.058l-33.53-33.502-11.176-13.028V81.568c0-20.477-16.764-37.227-37.255-37.227-20.49 0-37.254 16.75-37.254 37.226V394.25l-11.176 11.167-33.53 33.502c-7.451 7.444-11.175 16.75-11.175 26.054V732.987c0 11.168-7.453 18.615-18.63 18.615-11.176 0-18.626-7.447-18.626-18.615v-266.15c0-20.475 7.45-39.086 22.353-52.117l33.529-35.362v-297.79c0-40.953 33.529-74.455 74.508-74.455 40.982 0 74.51 33.502 74.51 74.454v297.79l33.53 33.504c14.9 14.89 22.353 33.502 22.353 52.112V732.987c0 11.168-7.452 18.615-18.628 18.615z m298.04 0c-102.457 0-186.279-83.755-186.279-186.123v-297.793l74.516-74.447v-111.672c0-40.952 33.53-74.454 74.507-74.454 40.977 0 74.505 33.502 74.505 74.454v632.81c0 20.473-16.765 37.225-37.249 37.225z m0-670.035c0-20.476-16.764-37.226-37.256-37.226-20.494 0-37.258 16.75-37.258 37.226V208.124l-11.177 11.167-63.33 63.287v282.9c0 81.895 67.058 148.899 149.021 148.899v-632.81z"  horiz-adv-x="1024" />

    
    <glyph glyph-name="kefang" unicode="&#58889;" d="M883 434.7V580c0 14.6-11.1 26.7-25.6 27.9-0.6 0.1-60.8 5.8-143.4 45.3-73.2 35-142.1 52.8-204.8 52.8-61.5 0-128.8-17.4-200.1-51.8-81.9-39.5-141.7-46.2-142.9-46.3-14.3-1.4-25.2-13.5-25.2-27.9v-145.3c-29.8-23.1-49-59.2-49-99.7v-196c0-42.5 34.5-77 77-77 32.6 0 60.5 20.3 71.7 49h542.5c11.2-28.7 39.1-49 71.7-49 42.5 0 77 34.5 77 77V335c0.1 40.5-19.1 76.6-48.9 99.7zM197 461v95.3c28 5.7 77 18.7 136.5 47.5 63.6 30.7 122.8 46.3 175.8 46.3 54.3 0 115-15.9 180.6-47.3 59.7-28.6 108.9-41.2 137.1-46.7v-95h-42v21c0 42.5-34.5 77-77 77h-98c-42.5 0-77-34.5-77-77v-21h-42v21c0 42.5-34.5 77-77 77h-98c-42.5 0-77-34.5-77-77v-21h-42z m238 0H295v21c0 11.6 9.4 21 21 21h98c11.6 0 21-9.4 21-21v-21z m294 0H589v21c0 11.6 9.4 21 21 21h98c11.6 0 21-9.4 21-21v-21z m147-322c0-11.6-9.4-21-21-21s-21 9.4-21 21v28H190v-28c0-11.6-9.4-21-21-21s-21 9.4-21 21V335c0 38.6 31.4 70 70 70h588c38.6 0 70-31.4 70-70v-196z"  horiz-adv-x="1024" />

    
    <glyph glyph-name="youshi" unicode="&#58925;" d="M499.2 633.6c-44.8 25.6-51.2 89.6-19.2 128 12.8 19.2 38.4 25.6 57.6 25.6 25.6 0 44.8-6.4 64-25.6 38.4-38.4 32-96-12.8-128l-12.8-6.4 6.4-6.4c12.8-19.2 32-32 44.8-51.2 6.4-6.4 6.4-6.4 12.8-6.4 32-38.4 147.2-166.4 147.2-166.4l6.4-6.4 6.4 6.4s6.4 0 6.4 6.4c12.8 6.4 12.8 6.4 19.2 12.8l12.8 12.8c70.4 44.8 108.8 70.4 147.2 96 6.4 6.4 12.8 6.4 19.2 6.4 12.8-6.4 19.2-19.2 19.2-32-6.4-38.4-19.2-102.4-44.8-243.2-25.6-160-38.4-211.2-44.8-249.6v-32c0-12.8-12.8-19.2-25.6-19.2H179.2c-19.2 0-25.6 6.4-25.6 25.6-12.8 51.2-19.2 102.4-25.6 147.2 0 19.2 6.4 32 25.6 32h646.4c6.4 0 19.2-12.8 12.8-25.6 0-12.8-6.4-19.2-19.2-19.2H172.8l19.2-108.8h684.8c6.4 0 12.8 6.4 19.2 12.8 6.4 38.4 19.2 96 32 198.4v6.4c0-6.4 19.2 102.4 25.6 128 6.4 44.8 12.8 70.4 12.8 83.2v25.6l-12.8-12.8s-6.4 0-6.4-6.4l-147.2-96c-12.8-12.8-25.6-6.4-38.4 6.4-32 38.4-64 70.4-121.6 134.4-44.8 51.2-64 76.8-89.6 102.4v6.4l-6.4 6.4-6.4-6.4-19.2-19.2c-6.4-6.4-6.4-12.8-12.8-19.2L320 352v-6.4c-12.8-6.4-25.6-12.8-38.4 0-25.6 19.2-57.6 38.4-96 64-25.6 19.2-25.6 19.2-51.2 32L128 448l-19.2 12.8 6.4-19.2v-6.4c0-6.4 0-12.8 6.4-19.2 6.4-19.2 6.4-38.4 12.8-57.6 0-6.4 0-12.8 6.4-12.8 6.4-25.6 12.8-51.2 12.8-64 0-12.8-12.8-25.6-25.6-25.6s-25.6 6.4-25.6 19.2c0 6.4-6.4 25.6-6.4 44.8 0 12.8-12.8 57.6-12.8 70.4v6.4C70.4 441.6 64 473.6 64 492.8V512c0 12.8 19.2 19.2 32 12.8 12.8-6.4 25.6-19.2 51.2-32 12.8-6.4 12.8-12.8 19.2-12.8 38.4-25.6 76.8-51.2 121.6-83.2l6.4-6.4 6.4 6.4c64 70.4 128 140.8 198.4 224l6.4 6.4-6.4 6.4zM582.4 704c0 19.2-19.2 38.4-38.4 38.4-12.8 0-19.2-6.4-32-12.8-6.4-6.4-6.4-19.2-6.4-25.6 0-19.2 19.2-38.4 38.4-38.4s38.4 19.2 38.4 38.4z m0 0"  horiz-adv-x="1024" />

    
    <glyph glyph-name="pinpai" unicode="&#59016;" d="M1004.544 598.016c0 0.341333 0.341333 0.341333 0.341333 0.682667s0.341333 0.341333 0.341334 0.682666 0.341333 0.341333 0.341333 0.682667 0.341333 0.682667 0.341333 0.682667c0 0.341333 0 0.341333 0.341334 0.682666 0 0.341333 0 0.682667 0.341333 1.024v0.682667 1.024 0.682667 1.024 0.682666 1.024 0.682667 1.024 0.341333 1.706667 0.341333c0 0.341333 0 1.024-0.341333 1.365334v0.682666c0 0.341333 0 0.682667-0.341334 1.024 0 0.341333 0 0.341333-0.341333 0.682667 0 0.341333-0.341333 0.682667-0.341333 1.024 0 0.341333 0 0.341333-0.341334 0.682667 0 0.341333-0.341333 0.682667-0.341333 1.024 0 0.341333-0.341333 0.341333-0.341333 0.682666s-0.341333 0.682667-0.341334 0.682667v0.341333s0 0.341333-0.341333 0.341334c0 0 0 0.341333-0.341333 0.341333l-117.76 209.578667c-4.096 7.509333-11.946667 11.946667-20.48 11.946666h-706.56c-8.533333 0-16.384-4.437333-20.48-11.946666L20.138667 619.52s0-0.341333-0.341334-0.341333c0 0 0-0.341333-0.341333-0.341334v-0.341333c0-0.341333-0.341333-0.682667-0.341333-0.682667 0-0.341333-0.341333-0.341333-0.341334-0.682666s-0.341333-0.682667-0.341333-0.682667c0-0.341333 0-0.341333-0.341333-0.682667 0-0.341333-0.341333-0.682667-0.341334-0.682666 0-0.341333 0-0.341333-0.341333-0.682667 0-0.341333 0-0.682667-0.341333-0.682667v-8.533333c0-0.341333 0-0.682667 0.341333-1.024v-0.341333c0-0.341333 0.341333-1.024 0.341333-1.365334v-0.341333c0-0.341333 0.341333-0.682667 0.341334-1.365333 0-0.341333 0-0.341333 0.341333-0.682667 0-0.341333 0.341333-0.682667 0.341333-1.024 0-0.341333 0.341333-0.341333 0.341334-0.682667s0.341333-0.682667 0.341333-0.682666c0-0.341333 0.341333-0.341333 0.341333-0.682667s0.341333-0.341333 0.341334-0.682667c0.341333-0.341333 0.341333-0.682667 0.682666-1.024 0-0.341333 0.341333-0.682667 0.341334-0.682666L480.938667-63.146667c0-0.341333 0.341333-0.341333 0.341333-0.341333s0-0.341333 0.341333-0.341333l0.341334-0.341334 0.682666-0.682666 0.341334-0.341334 0.341333-0.341333 0.341333-0.341333 0.682667-0.682667 0.341333-0.341333 0.341334-0.341334c0.341333-0.341333 0.682667-0.341333 0.682666-0.682666 0.341333 0 0.341333-0.341333 0.682667-0.341334 0.341333-0.341333 0.682667-0.341333 1.024-0.682666 0 0 0.341333 0 0.341333-0.341334h0.341334l0.341333-0.341333c0.341333 0 0.341333-0.341333 0.682667-0.341333 0 0 0.341333 0 0.341333-0.341334 0 0 0.341333 0 0.341333-0.341333h0.341334s0.341333 0 0.341333-0.341333c0 0 0.341333 0 0.341333-0.341334 0.341333 0 0.682667-0.341333 1.024-0.341333h0.682667c0.341333 0 1.024-0.341333 1.365333-0.341333h0.682667c0.341333 0 0.682667 0 1.024-0.341334H504.832c0.341333 0 1.024 0.341333 1.365333 0.341334 0.341333 0 0.341333 0 0.682667 0.341333 0.341333 0 0.682667 0.341333 1.024 0.341333 0 0 0.341333 0 0.341333 0.341334h0.341334c0.341333 0 0.682667 0.341333 1.024 0.341333h0.341333s0.341333 0 0.341333 0.341333l0.341334 0.341334s0.341333 0 0.341333 0.341333c0 0 0.341333 0 0.341333 0.341333 0.341333 0 0.341333 0.341333 0.682667 0.341334 0 0 0.341333 0 0.341333 0.341333l0.341334 0.341333c0.341333 0.341333 0.682667 0.341333 0.682666 0.682667l0.341334 0.341333 1.024 1.024 0.341333 0.341334 0.341333 0.341333 0.341334 0.341333 0.682666 0.682667 0.341334 0.341333s0 0.341333 0.341333 0.341334c0 0.341333 0.341333 0.341333 0.341333 0.682666L1002.496 593.92s0 0.341333 0.341333 0.341333c0 0.341333 0.341333 0.341333 0.341334 0.682667s0.341333 0.341333 0.341333 0.682667c0 0 0 0.341333 0.341333 0.341333 0 0 0 0.341333 0.341334 0.341333 0 0.341333 0.341333 0.341333 0.341333 0.682667v1.024z m-61.44 33.792h-203.776l-73.045333 162.474667h185.344l91.477333-162.474667z m-328.362667 162.474667l73.045334-162.474667h-351.573334l73.045334 162.474667h205.482666z m76.458667-209.92l-189.781333-557.397334L331.776 584.362667h359.424z m-518.826667 209.92h185.344L284.672 631.808H80.896l91.477333 162.474667z m109.909334-209.92l151.893333-498.688-348.16 498.688h196.266667z m289.450666-496.64L740.693333 584.704h195.925334L571.733333 87.722667z"  horiz-adv-x="1024" />

    
    <glyph glyph-name="datangba" unicode="&#59014;" d="M441.525151 225.30916c-45.009521 0-86.1013 25.309508-105.556454 65.221513l-44.163645 90.4865c-30.963523 63.46298-96.741533 103.998261-169.041694 103.998261H93.335768C66.245468 485.015434 44.519803 463.801748 44.519803 437.891222c0-5.609495 1.046215-11.196731 3.071867-16.472327l148.451285-383.827486c10.573453-27.357419 37.596974-45.588279 67.8927-45.588279h585.123777c30.295726 0 57.319247 18.253119 67.892701 45.588279l148.451284 383.849746c2.025651 5.253337 3.071866 10.840572 3.071867 16.450067 0 25.888266-21.725664 47.101952-48.815965 47.101952h-29.42759c-72.300161 0-138.078171-40.513021-169.041694-103.998261L777.02639 290.530673c-19.455154-39.912004-60.546933-65.221512-105.556454-65.221513h-229.944785z m229.944785 44.519804c28.091996 0 53.601843 15.715491 65.555411 40.223642l44.163645 90.486501c38.46511 78.866832 119.825051 128.996131 209.042737 128.996131h29.42759c51.420373 0 93.335768-40.89144 93.335768-91.621756 0-11.129951-2.070171-22.126342-6.076953-32.499457L958.511369 21.54202c-17.273684-44.631103-60.858571-74.058693-109.429677-74.058693H263.935655c-48.571106 0-92.155993 29.42759-109.429677 74.058693L6.076953 405.391766A90.130342 90.130342 0 0 0 0 437.913482c0 50.730316 41.915395 91.621756 93.335768 91.621756h29.42759c89.217686 0 170.577627-50.129299 209.042737-128.996131l44.163645-90.486501c11.953567-24.508152 37.463415-40.223642 65.555411-40.223642h229.944785zM1015.852876 495.967306h-44.519804C971.333072 713.580105 801.133864 851.480197 556.497544 851.480197 311.861223 851.480197 141.662015 713.580105 141.662015 495.967306h-44.519804C97.142211 740.470067 289.111604 896 556.497544 896c267.38594 0 459.355332-155.529933 459.355332-400.032694zM440.478936-83.435677c-3.450285 0-5.342376-1.090735-5.253337-0.957175A12.732664 12.732664 0 0 1 435.848876-83.435677h4.6078z m-1.335594 13.801139V-33.128299h44.519803v-36.550758c0-32.187818-19.343855-58.298683-43.184209-58.298683h-107.938264C308.744837-127.95548 289.378723-101.844615 289.378723-69.634538v39.400026l44.519803-0.667797v-38.732229c0-5.743055 1.380114-10.684753 3.272206-13.801139h98.700404c1.892092 3.116386 3.249946 8.058084 3.249946 13.801139z m-101.349333-14.758314c0.1113-0.133559-1.780792 0.957176-5.253337 0.957175h4.63006l0.623277-0.957175zM332.562932-83.435677c3.450285 0 5.364636-1.090735 5.253337-0.957175a12.732664 12.732664 0 0 0-0.623277 0.957175h-4.63006z m4.63006 0h98.700404c1.892092 3.116386 3.249946 8.058084 3.249946 13.801139V-33.128299h44.519803v-36.550758c0-32.187818-19.321595-58.298683-43.184209-58.298683H332.562932C308.744837-127.95548 289.378723-101.844615 289.378723-69.634538v39.400026l44.519803-0.667797v-38.732229c0-5.743055 1.380114-10.684753 3.272206-13.801139z m98.700404 0h4.6078c-3.450285 0-5.342376-1.090735-5.253337-0.957175A12.732664 12.732664 0 0 1 435.848876-83.435677zM775.824355-83.435677h4.63006c-3.450285 0-5.364636-1.090735-5.253337-0.957175a12.732664 12.732664 0 0 1 0.623277 0.957175z m0 0c1.892092 3.116386 3.272206 8.058084 3.272206 13.801139V-33.128299h44.519804v-36.550758C823.616365-101.844615 804.29477-127.95548 780.432155-127.95548h-107.916004c-23.840355 0-43.184209 26.110865-43.184209 58.320942v39.400026l44.519804-0.667797v-38.732229c0-5.743055 1.380114-10.684753 3.272205-13.801139h98.700404z m-98.054867-0.957175c0.1113-0.133559-1.780792 0.957176-5.253337 0.957175h4.6078l0.667797-0.957175zM672.516151-83.435677c3.450285 0 5.342376-1.090735 5.253337-0.957175A12.732664 12.732664 0 0 0 677.146211-83.435677h-4.6078z m103.308204 0c1.892092 3.116386 3.272206 8.058084 3.272206 13.801139V-33.128299h44.519804v-36.550758C823.616365-101.844615 804.29477-127.95548 780.432155-127.95548h-107.916004c-23.840355 0-43.184209 26.110865-43.184209 58.320942v39.400026l44.519804-0.667797v-38.732229c0-5.743055 1.380114-10.684753 3.272205-13.801139h98.700404z m4.63006 0c-3.450285 0-5.364636-1.090735-5.253337-0.957175a12.732664 12.732664 0 0 1 0.623277 0.957175h4.63006z"  horiz-adv-x="1113" />

    
    <glyph glyph-name="gongsituandui" unicode="&#59017;" d="M768.852302 369.691843a288.870091 288.870091 0 0 1 126.066465 240.145015A281.135952 281.135952 0 0 1 618.810006 896a281.135952 281.135952 0 0 1-273.78852-286.163142 288.870091 288.870091 0 0 1 126.066466-240.145015C309.444447 300.084592 193.432363 122.586103 193.432363-89.329305a38.670695 38.670695 0 0 1 77.341389 0c0 227.770393 154.682779 413.003021 348.036254 413.003021s348.036254-185.232628 348.036254-413.003021a38.670695 38.670695 0 0 1 77.34139 0c2.320242 211.915408-113.305136 389.413897-275.335348 459.021148z m-348.036254 240.145015A203.794562 203.794562 0 0 0 618.810006 818.65861a203.794562 203.794562 0 0 0 197.607251-208.821752A203.794562 203.794562 0 0 0 618.810006 401.015106a203.794562 203.794562 0 0 0-196.44713 208.821752zM328.393088 344.942598h2.320241a38.670695 38.670695 0 0 1 7.734139 9.667674 38.670695 38.670695 0 0 1 0 6.574018 38.670695 38.670695 0 0 1 1.933535 7.347432 38.670695 38.670695 0 0 1 0 9.667674 36.350453 36.350453 0 0 1 0 5.02719 38.670695 38.670695 0 0 1-2.706949 10.054381 38.670695 38.670695 0 0 1-2.706948 5.02719 38.670695 38.670695 0 0 1-10.441088 8.120846 181.752266 181.752266 0 0 0-97.450151 165.123867A180.205438 180.205438 0 0 0 336.90064 741.317221 38.670695 38.670695 0 1 1 309.444447 811.311178a261.800604 261.800604 0 0 1-81.595166-425.377643A442.392749 442.392749 0 0 1 0.078888-9.280967a38.670695 38.670695 0 0 1 77.34139 0c0 163.190332 97.836858 305.885196 237.824773 348.036254a38.670695 38.670695 0 0 1 13.148037 6.187311zM1013.251094 385.160121a261.800604 261.800604 0 0 1-81.595167 425.377643A38.670695 38.670695 0 1 1 903.039613 741.317221a180.205438 180.205438 0 0 0 109.824774-167.830816 181.752266 181.752266 0 0 0-95.903324-161.643505 38.670695 38.670695 0 0 1-9.667673-7.734139h-2.320242a38.670695 38.670695 0 0 1-2.706949-4.640483 38.670695 38.670695 0 0 1-4.640483-8.89426 36.350453 36.350453 0 0 1 0-5.02719 24.362538 24.362538 0 0 1 0-17.015106 38.670695 38.670695 0 0 1 0-6.574018 38.670695 38.670695 0 0 1 8.120846-9.667674h2.320242a38.670695 38.670695 0 0 1 13.148036-6.574018c139.987915-41.377644 237.824773-184.072508 237.824773-348.036254a38.670695 38.670695 0 1 1 77.34139 0 442.392749 442.392749 0 0 1-223.129909 387.480363z"  horiz-adv-x="1239" />

    
    <glyph glyph-name="sirendingzhi" unicode="&#59109;" d="M898.599 558.38c-22.141 20.878-52.064 28.124-81.61 22.866-33.722-6.001-61.681-34.761-69.622-67.53-6.733-27.788 0.334-56.294 17.239-77.909l-87.292-77.644-35.29-31.39-29.062 74.304-65.484 167.433c-0.519 1.327-1.037 2.653-1.557 3.979 33.606 13.567 56.175 46.548 57.236 82.94 0.036 0.571 0.059 1.144 0.053 1.724a23.806 23.806 0 0 1-0.038 1.515c-0.773 29.417-15.097 55.432-38.614 72.885-22.277 16.533-53.034 20.911-79.373 12.792-28.356-8.74-49.215-30.476-59.517-57.858-9.663-25.685-4.952-57.305 10.394-79.781 10.572-15.483 25.391-27.146 42.125-33.933l-33.342-85.25-62.872-160.751-78.922 70.199-43.617 38.796c12.077 15.414 19.084 34.407 19.776 54.778 0.919 27.041-12.153 55.459-33.575 72.02-23.825 18.417-53.785 25.497-83.156 17.095-13.943-3.989-26.399-11.596-37.082-21.282-10.807-9.798-17.905-22.359-23.245-35.727-13.012-32.578-2.229-71.937 22.296-95.987 20.761-20.358 49.69-28.551 77.358-24.403l20.733-96.854 34.451-160.938 2.153-10.059c2.309-10.787 13.478-18.354 24.107-18.354h228.745c13.628 0 25 11.372 25 25s-11.372 25-25 25H303.428l-22.254 103.958-21.05 98.332 51.2-45.541 63.09-56.116c6.773-6.024 15.326-8.904 24.324-6.43 9.083 2.499 14.188 9.093 17.461 17.461l43.046 110.063 52.75 134.872 18.939-48.425 65.485-167.433 11.371-29.077c3.273-8.368 8.379-14.962 17.461-17.461 8.998-2.475 17.551 0.405 24.324 6.43l106.722 94.926 7.568 6.732-10.628-49.649-32.676-152.642h-45.798c-13.628 0-25-11.372-25-25s11.372-25 25-25h65.977c10.629 0 21.798 7.566 24.107 18.354l26.183 122.313 31.14 145.467c20.329-3.092 41.38 0.553 59.845 11.125 25.74 14.738 41.336 41.468 44.659 70.454 3.141 27.366-8.164 55.835-28.075 74.611z m-714.77-107.387a76.322 76.322 0 0 1-1.081 0.05c-2.355 0.418-4.678 1.003-6.976 1.661-1.28 0.366-2.537 0.81-3.792 1.253-2.018 0.964-3.972 2.058-5.889 3.207-1.123 0.673-2.205 1.411-3.286 2.149l-0.028 0.019-0.074 0.063c-2 1.675-3.847 3.523-5.635 5.419a51.995 51.995 0 0 0-1.826 2.069c-1.516 2.131-2.84 4.392-4.093 6.684a53.007 53.007 0 0 0-1.301 2.588c-0.1 0.3-0.227 0.668-0.391 1.134-0.894 2.531-1.554 5.139-2.132 7.758-0.072 0.327-0.128 0.657-0.191 0.986a41.6 41.6 0 0 0-0.199 1.856c-0.203 2.788-0.145 5.587 0 8.375 0.021 0.393 0.07 0.949 0.122 1.491 0.173 0.893 0.364 1.782 0.56 2.669 0.574 2.601 1.384 5.143 2.27 7.652 0.407 0.843 0.83 1.679 1.263 2.509 1.201 2.307 2.604 4.501 4.068 6.646a78.701 78.701 0 0 0 2.746 3.056c1.534 1.627 3.191 3.132 4.891 4.583 1.052 0.747 2.146 1.433 3.238 2.118 1.917 1.201 3.924 2.247 5.96 3.23 1.643 0.614 3.324 1.116 5.009 1.598a53.863 53.863 0 0 0 4.275 1.018c-0.318-0.167 5.058 0.438 6.681 0.455 1.286 0.014 5.147-0.337 6.359-0.389 1.98-0.403 3.943-0.896 5.884-1.452 1.281-0.366 2.537-0.81 3.792-1.253 2.018-0.964 3.972-2.058 5.89-3.207 1.121-0.672 2.202-1.41 3.281-2.146 2.026-1.713 3.923-3.574 5.742-5.503 0.35-0.371 0.679-0.759 1.015-1.142 0.353-0.555 2.316-3.186 2.948-4.195 1.1-1.756 2.062-3.594 2.986-5.448 0.236-0.575 0.5-1.234 0.661-1.689 0.926-2.623 1.617-5.318 2.168-8.042 0.044-0.812 0.432-4.116 0.47-5.343 0.072-2.297-0.044-4.594-0.217-6.884-0.08-0.433-0.148-0.869-0.237-1.3-0.466-2.397-1.145-4.748-1.874-7.076a64.914 64.914 0 0 0-0.795-2.271c-0.988-2.095-2.143-4.105-3.341-6.085-0.496-0.819-2.054-2.921-2.816-3.973a87.107 87.107 0 0 0-3.01-3.187 51.725 51.725 0 0 0-2.672-2.5c0.109 0.194-3.444-2.496-4.586-3.206-0.265-0.165-0.521-0.342-0.779-0.517-0.349-0.17-0.697-0.342-1.039-0.529a98.539 98.539 0 0 0-3.915-2.025c-0.198-0.069-0.421-0.148-0.694-0.248-3.146-1.149-6.413-1.932-9.693-2.585l-0.274-0.024c-1.747-0.161-3.503-0.184-5.255-0.207-1.397-0.019-2.794 0.058-4.188 0.13zM471.01 651.691c-0.122 1.35-0.167 2.705-0.209 4.059-0.044 1.4 0 2.802 0.043 4.202 0.022 0.719 0.157 2.138 0.253 3.172 0.33 1.674 0.725 3.336 1.161 4.985 0.316 1.197 1.619 4.69 1.973 5.795a83.41 83.41 0 0 0 2.182 4.05c0.651 1.137 1.369 2.234 2.086 3.33 0.23 0.353 0.42 0.646 0.575 0.89 1.478 1.763 3.073 3.424 4.714 5.034 0.789 0.774 3.127 2.641 4.24 3.549a80.669 80.669 0 0 0 4.31 2.635c1.142 0.654 2.321 1.239 3.5 1.823l0.087 0.043 0.033 0.012c2.086 0.785 4.231 1.398 6.385 1.967 1.124 0.297 4.202 0.767 5.667 1.008a90.033 90.033 0 0 0 3.99 0.121c1.326 0.014 5.388-0.359 6.463-0.393 2.673-0.539 5.305-1.27 7.891-2.134 1.104-0.463 3.268-1.356 4.154-1.818 2.323-1.21 4.533-2.625 6.694-4.1 0.366-0.313 0.73-0.627 1.094-0.943 1.966-1.714 3.777-3.597 5.527-5.527 0.334-0.376 0.654-0.764 0.979-1.147 1.503-2.119 2.819-4.363 4.063-6.641 0.392-0.716 1.116-2.359 1.626-3.527a77.824 77.824 0 0 0 1.59-5.324c0.261-0.99 0.481-1.989 0.682-2.993-0.188 0.471 0.431-5.02 0.447-6.664-0.014-1.317-0.377-5.348-0.405-6.448a84.533 84.533 0 0 0-1.066-4.508c-0.315-1.195-1.614-4.678-1.971-5.789a78.282 78.282 0 0 0-2.858-5.18c-0.672-1.123-1.411-2.205-2.148-3.286l-0.011-0.016c-1.43-1.686-2.964-3.281-4.541-4.827-0.794-0.778-3.154-2.662-4.259-3.564a77.066 77.066 0 0 0-5.443-3.25c-0.823-0.45-1.666-0.861-2.513-1.265-2.493-0.935-5.063-1.642-7.647-2.268-0.943-0.229-1.896-0.411-2.85-0.586-3.22-0.297-6.461-0.264-9.686-0.096-0.376 0.02-0.902 0.065-1.422 0.115-0.474 0.091-0.947 0.181-1.419 0.275-2.633 0.524-5.212 1.29-7.758 2.132a35.933 35.933 0 0 0-1.309 0.474c-0.416 0.203-0.832 0.405-1.246 0.61-2.738 1.357-5.334 2.983-7.854 4.704a96.753 96.753 0 0 0-2.066 1.823c-1.932 1.752-3.706 3.67-5.418 5.635l-0.006 0.007a93.837 93.837 0 0 0-1.529 2.271c-1.482 2.266-2.757 4.659-3.935 7.095-0.453 1.216-0.838 2.457-1.22 3.696-0.688 2.224-1.19 4.497-1.62 6.782z m7.955-19.429c-1.124 1.385-2.791 3.739 0 0z m324.92-166.209c1.505-1.822 0.843-1.057 0 0z m64.849 0.795c3.294 4.602 1.102 1.343 0 0z m5.984 10.993c-0.446-1.061-1.389-3.355-1.868-4.274-1.01-1.939-2.172-3.794-3.367-5.622-0.274-0.411-0.564-0.811-0.848-1.215-2.273-2.71-4.834-5.162-7.518-7.462-0.693-0.479-1.395-0.947-2.1-1.409-1.831-1.198-3.754-2.249-5.693-3.259-0.41-0.214-1.087-0.518-1.759-0.81a78.735 78.735 0 0 0-4.627-1.455c-1.781-0.509-3.594-0.896-5.413-1.236-0.914-0.073-1.829-0.13-2.744-0.178-2.686-0.14-5.374-0.028-8.055 0.148l-0.211 0.021c-1.104 0.21-2.203 0.442-3.299 0.689-1.847 0.417-3.659 0.965-5.452 1.57 1.081-0.306-4.343 1.906-5.614 2.602-0.342 0.187-0.691 0.36-1.041 0.53-0.258 0.174-0.513 0.351-0.777 0.516a98.43 98.43 0 0 0-3.565 2.321c-2.004 1.685-3.871 3.528-5.67 5.427-0.54 0.57-1.058 1.16-1.568 1.757a25.31 25.31 0 0 0-0.726 0.967c-1.876 2.693-3.46 5.577-4.912 8.516a75.413 75.413 0 0 0-1.214 3.622c-0.551 1.759-0.981 3.551-1.354 5.356 0.239-0.708-0.533 5.413-0.553 7.111-0.016 1.397 0.058 2.793 0.13 4.188 0.022 0.427 0.038 0.784 0.05 1.082 0.418 2.354 1.003 4.677 1.661 6.975 0.365 1.279 0.81 2.535 1.252 3.789 0.964 2.019 2.058 3.975 3.208 5.893 0.673 1.123 1.411 2.205 2.148 3.285l0.021 0.03 0.062 0.073c1.675 2 3.522 3.847 5.418 5.635 0.669 0.63 1.365 1.23 2.066 1.824 2.132 1.517 4.394 2.842 6.688 4.095a53.04 53.04 0 0 0 2.589 1.301c0.3 0.1 0.667 0.227 1.133 0.391 2.532 0.894 5.14 1.554 7.759 2.132 0.327 0.072 0.657 0.128 0.985 0.191 0.637 0.079 1.36 0.163 1.856 0.199 2.787 0.203 5.587 0.145 8.375 0 0.393-0.021 0.949-0.069 1.492-0.122 0.893-0.173 1.781-0.364 2.669-0.56 2.601-0.574 5.143-1.384 7.651-2.27 0.843-0.407 1.679-0.831 2.509-1.263 2.306-1.201 4.498-2.604 6.645-4.066a79.527 79.527 0 0 0 3.058-2.747c1.627-1.534 3.132-3.192 4.584-4.892 0.746-1.051 1.432-2.145 2.116-3.237 1.202-1.918 2.249-3.926 3.232-5.963 0.613-1.642 1.114-3.322 1.597-5.006a54.41 54.41 0 0 0 1.018-4.275c-0.167 0.32 0.438-5.057 0.454-6.681 0.013-1.287-0.338-5.152-0.39-6.362a77.636 77.636 0 0 0-1.451-5.882c-0.193-0.67-0.415-1.33-0.637-1.99zM733.312 79.634H290.687c-19.079 0-35-15.921-35-35s15.921-35 35-35h442.626c19.079 0 35 15.921 35 35s-15.922 35-35.001 35z"  horiz-adv-x="1024" />

    
    <glyph glyph-name="youxiang" unicode="&#58923;" d="M184.32 691.2h655.36c44.7488 0 81.3568-34.048 81.92-75.9296L512.256 400.896 102.7584 615.1168C103.168 657.1008 139.4688 691.2 184.32 691.2zM102.7584 532.992L102.4 153.6c0-42.24 36.864-76.8 81.92-76.8h655.36c45.056 0 81.92 34.56 81.92 76.8V533.1968l-399.7696-204.4928a21.4016 21.4016 0 0 0-19.6608 0l-399.36 204.288z"  horiz-adv-x="1024" />

    
    <glyph glyph-name="huiyikaihuitaolun" unicode="&#58883;" d="M538 312.6h13c7.2 0 13-5.8 13-13v-208c0-7.2-5.8-13-13-13h-13c-7.2 0-13 5.8-13 13v208c0 7.2 5.8 13 13 13z m-65 0h13c7.2 0 13-5.8 13-13v-208c0-7.2-5.8-13-13-13h-13c-7.2 0-13 5.8-13 13v208c0 7.2 5.8 13 13 13z m-299 377c-14.4 0-26-11.6-26-26 0-14.3 11.7-26 26-26 14.4 0 26 11.7 26 26s-11.6 26-26 26z m0-91.1c-35.9 0-65 29.1-65 65s29.1 65 65 65 65-29.1 65-65c0-35.8-29.1-65-65-65z m182-389.9l-143 78v221s-3.7 26-39 26c-31.9 0-39-26-39-26v-195s-2.2-20.2 13-26l195-91v-156h13v169z m39-13v-156s-2.9-41.7-52-39c-37.6 2.1-39 39-39 39v130l-169 78s-38.5 14.5-39 52v221s17.9 51.3 78 52c62.3 0.7 78-52 78-52v-208l117-65s25.1-8.9 26-52z m117 533.1c-14.4 0-26-11.6-26-25.9 0-14.3 11.7-25.9 26-25.9s26 11.6 26 25.9c0 14.3-11.6 25.9-26 25.9z m0-90.7c-35.9 0-65 29-65 64.8 0 35.7 29.1 64.7 65 64.7s65-29 65-64.7c0-35.8-29.1-64.8-65-64.8z m52-90.6s-2.3 26.7-52 25.9c-53.6-0.8-52-25.9-52-25.9v-156.8h104V547.4z m143-195.9H317s-13 2.2-13 17.9c0 19.6 13 21.2 13 21.2h104V560.4s-0.5 51.3 91 51.8c83.9 0.5 91-51.8 91-51.8v-169.8h104s13-5 13-19.1c0-13.2-13-20-13-20z m143 338.2c-14.4 0-26-11.6-26-25.9 0-14.3 11.6-25.9 26-25.9 14.3 0 26 11.6 26 25.9 0 14.3-11.7 25.9-26 25.9z m0-90.6c-35.9 0-65 29-65 64.7s29.1 64.7 65 64.7 65-29 65-64.7-29.1-64.7-65-64.7z m39-285V508.4s-7.1 25.9-38.9 25.9c-35.4 0-39-25.9-39-25.9v-220.2l-143-77.7v-168.4h13V197.5l195 90.6c15 5.9 12.9 26 12.9 26z m39-12.9c-0.5-37.4-39-51.8-39-51.8l-169-77.7v-129.5s-1.4-36.8-39-38.8c-49.1-2.7-52 38.8-52 38.8V197.5c0.9 43 26 51.8 26 51.8L772 314V521.3s15.7 52.5 78 51.8c60.1-0.7 78-51.8 78-51.8v-220.1z"  horiz-adv-x="1024" />

    
    <glyph glyph-name="ketangweixuanzhong" unicode="&#59007;" d="M1117.978039 620.381932c-21.656668 46.356439-59.946283 67.804871-109.473607 68.5408-74.113511 1.105077-148.250686 0.286326-222.380761 0.286326h-14.06311c3.454844 5.596375 5.634236 9.221595 7.908281 12.785291 27.70028 43.45295 55.528341 86.823079 83.081908 130.368316 14.666524 23.182952 4.61908 51.245281-21.261491 60.49054-22.551142 8.054993-45.393342 0.177475-58.538315-20.39778q-55.904588-87.52588-111.560712-175.203205a15.381157 15.381157 0 0 0-15.021474-8.225369q-93.446442 0.477999-186.892884-0.028396c-7.792331-0.047327-11.812728 2.579302-15.835492 8.951833Q398.520892 785.767226 342.436463 873.165324a48.150119 48.150119 0 0 1-67.236951 15.03094c-21.26859-13.383973-24.47497-36.439143-8.480934-61.560121C295.41745 781.564621 324.15655 736.521496 354.315448 689.206692h-14.997811q-107.05285 0-214.103332-0.080455a219.413381 219.413381 0 0 1-28.249269-1.857571C41.424863 679.921206 0.118175 634.165815 0.087413 579.633699Q-0.068765 280.363719 0.028255-18.90626A95.512249 95.512249 0 0 1 10.376223-64.517305c23.242111-43.701415 61.12235-63.299375 109.338727-63.339603q442.991506-0.35495 885.985379-0.066257a179.997393 179.997393 0 0 1 21.211798 1.273086c58.015356 6.914421 99.109074 53.341851 99.109074 111.80681q0.002366 296.312065 0.030762 592.626497c0.004733 14.751712-1.814976 29.205267-8.071558 42.593972z m-83.44869-632.371405c0-25.137542-8.674972-33.909534-34.068079-33.914267q-437.714587-0.049693-875.429173 0.004733c-24.853583 0.002366-33.862208 9.323347-33.862208 34.449058q-0.009465 292.201747 0 584.40586c0.002366 25.08075 8.322389 33.431535 33.223298 33.431535q219.44651 0.007099 438.895387 0.002367h437.714586c25.315017 0 33.526189-8.03133 33.526189-32.79026v-585.589026zM759.634953 346.616276c-61.482032 32.418745-123.153371 64.475442-184.730057 96.71198-28.183011 14.751712-56.41335 29.418237-84.473311 44.397117-55.431322 29.588613-125.829692-7.065867-120.720782-72.040605 3.419349-43.474247 0.650741-87.435959 0.650741-131.177602 0-47.288774 0.130148-94.577548-0.047327-141.866322-0.111218-28.992297 13.641903-49.692967 38.341674-63.048544 26.864965-14.529277 54.385403-13.559081 81.434942 0.149079 16.109987 8.161478 31.947845 16.855381 47.953713 25.22273q111.184465 58.117108 222.376029 116.220019c17.307351 9.063051 30.528046 22.080242 37.033092 40.963569 11.415184 33.133378-3.159053 66.195765-37.818714 84.468579z m-297.873844-186.074132V406.870183l235.698476-123.155738-235.700843-123.172301z"  horiz-adv-x="1126" />

    
    <glyph glyph-name="rongyujinpai" unicode="&#58921;" d="M617.933 325.171a40.96 40.96 0 0 1 16.281 40.039l-12.8 74.496 54.426 52.787a40.96 40.96 0 0 1-22.682 69.734l-75.11 10.906-33.434 67.789a40.96 40.96 0 0 1-73.37 0l-33.433-67.79-74.803-10.905a40.96 40.96 0 0 1-22.682-69.734l53.914-52.787-12.749-74.496a40.96 40.96 0 0 1 59.341-43.11l66.918 35.174 66.919-35.175a40.602 40.602 0 0 1 43.059 3.072zM570.778 476.16a40.96 40.96 0 0 1-11.725-36.198l7.577-44.135-39.68 20.839a40.96 40.96 0 0 1-38.041 0l-39.629-20.839 7.578 44.135a40.96 40.96 0 0 1-11.776 36.198l-32.052 31.283 44.288 6.4a40.96 40.96 0 0 1 30.72 22.375l19.815 40.192 19.814-40.192a40.96 40.96 0 0 1 30.72-22.375l44.34-6.4zM890.112 150.886L780.749 260.301a348.16 348.16 0 1 1-545.639 0L125.747 150.886a30.72 30.72 0 0 1 16.64-52.019l65.485-11.008 11.06-65.485a30.72 30.72 0 0 1 20.94-24.166 29.286 29.286 0 0 1 9.318-1.485 30.72 30.72 0 0 1 21.76 9.011l137.012 137.012a347.392 347.392 0 0 1 199.936 0l137.01-137.012a30.72 30.72 0 0 1 21.71-9.01 29.594 29.594 0 0 1 9.37 1.484 30.72 30.72 0 0 1 20.94 24.115l11.06 65.536 65.535 11.008a30.72 30.72 0 0 1 16.589 52.02z m-543.949 16.999l-76.8-76.8-4.761 28.365a30.72 30.72 0 0 1-25.19 25.19l-28.366 4.762 65.895 65.894c2.816-2.509 5.785-5.12 8.704-7.27l1.229-1.024a408.888 408.888 0 0 1 11.827-9.268c0.819-0.665 1.69-1.228 2.509-1.843a353.28 353.28 0 0 1 36.864-23.808l4.556-2.56c1.383-0.563 2.407-1.075 3.533-1.638z m40.192 48.742l-3.43 1.587c-3.226 1.536-6.349 3.175-9.523 4.864l-3.636 1.946-9.42 5.376-2.714 1.74a286.72 286.72 0 1 0 354.714 43.214l-3.38-3.43c-2.508-2.407-5.12-4.814-7.526-7.169l-2.816-2.509a291.84 291.84 0 0 0-28.365-22.272l-2.509-1.74c-2.713-1.844-5.53-3.636-8.345-5.12-1.485-0.922-2.97-1.895-4.506-2.765a215.965 215.965 0 0 0-8.243-4.762l-5.12-2.662a325.529 325.529 0 0 0-8.397-4.301l-5.12-2.355c-2.867-1.331-5.734-2.714-8.704-3.943l-4.813-1.945a286.054 286.054 0 0 0-228.403 6.451z m389.888-71.68a30.72 30.72 0 0 1-25.19-25.19l-4.813-28.365-76.8 76.8c1.024 0.512 1.946 1.126 2.97 1.638l7.065 3.994a359.724 359.724 0 0 1 18.381 11.213l4.813 3.123c3.328 2.253 6.553 4.608 9.779 6.963l5.12 3.789c3.277 2.509 6.502 5.12 9.677 7.629l4.25 3.533c2.252 1.945 4.659 3.788 6.86 5.734l65.946-65.894z"  horiz-adv-x="1024" />

    
    <glyph glyph-name="icon-test" unicode="&#58986;" d="M929.72-2.81H902V310.14c0 16.99-8.5 39.78-27.72 48.28L623.03 526.08V788.06l-2.68 5.81c-11.17 28.62-36.21 42.48-67.05 37.11L159.41 711.62c-22.35-8.49-38.89-31.29-38.89-56.78v-657.65H92.81c-16.55 0-28.16-14.3-28.16-28.61 0-16.98 11.17-28.61 28.16-28.61h64.82c5.81-1.78 12.07-2.68 19.22-2.68h391.18c6.71 0 13.42 0.9 19.23 2.68h17.43c5.81-1.78 12.07-2.68 19.23-2.68h279.42v2.68h27.72c16.54 0 27.72 11.18 27.72 28.61-0.89 16.99-12.06 28.61-29.06 28.61z m-363.03 0H175.51V653.94L566.7 773.31v-776.12h-0.01z m279.43 0H622.59V460.81l223.53-147.99v-315.63z m-558.85 511.9h167.64c16.54 0 27.72 11.18 27.72 28.61 0 16.99-11.17 28.61-27.72 28.61H287.27c-16.55 0-27.72-11.17-27.72-28.61 0.01-17.43 11.18-28.61 27.72-28.61z m0-170.78h167.64c16.54 0 27.72 11.17 27.72 28.61 0 16.98-11.17 28.61-27.72 28.61H287.27c-16.55 0-27.72-11.17-27.72-28.61 0.01-16.98 11.18-28.61 27.72-28.61z m0-170.78h167.64c16.54 0 27.72 11.18 27.72 28.61 0 16.99-11.17 28.61-27.72 28.61H287.27c-16.55 0-27.72-11.18-27.72-28.61 0.01-16.99 11.18-28.61 27.72-28.61z m418.91 0h55.88c16.55 0 28.17 11.18 28.17 28.61 0 16.99-11.17 28.61-28.17 28.61h-55.88c-16.55 0-27.72-11.18-27.72-28.61 0.01-16.99 11.18-28.61 27.72-28.61z"  horiz-adv-x="1024" />

    
    <glyph glyph-name="chuanzhen" unicode="&#58951;" d="M910.654407 138.751109h-75.866662v75.394086h37.951507v75.321382H151.915084v-75.394086h37.951507v-75.394086H113.999929a37.806099 37.806099 0 0 0-37.951507 37.697043V553.345877c0 36.352018 151.733324 75.394086 417.321169 75.394085h37.915155c263.188612 0 417.321169-38.096915 417.321168-75.394085v-376.970429a37.806099 37.806099 0 0 0-37.951507-37.697043z m-94.842415 376.970429a56.56374 56.56374 0 1 1 56.890908-56.56374 56.7455 56.7455 0 0 1-56.890908 56.56374zM227.781746 854.958571A37.806099 37.806099 0 0 0 265.733253 892.655614h493.18783a37.806099 37.806099 0 0 0 37.915155-37.697043v-188.448862H227.781746V854.958571zM796.836238-87.431148a37.806099 37.806099 0 0 0-37.915155-37.697043H265.733253a37.806099 37.806099 0 0 0-37.951507 37.697043V251.842238H796.836238v-339.273386z m-75.866662 301.721751H303.68476v-37.697043h417.321169v37.697043z m0-75.394086H303.68476v-37.697042h417.321169v37.697042z m0-75.394085H303.68476v-37.697043h417.321169v37.551635z m0-75.394086H303.68476v-37.697043h417.321169v37.697043z m0 0"  horiz-adv-x="1024" />

    
    <glyph glyph-name="arrow-down" unicode="&#58981;" d="M512 181.333333c-8.533333 0-17.066667 2.133333-23.466667 8.533334l-341.333333 341.333333c-12.8 12.8-12.8 32 0 44.8 12.8 12.8 32 12.8 44.8 0l320-317.866667 317.866667 320c12.8 12.8 32 12.8 44.8 0 12.8-12.8 12.8-32 0-44.8L533.333333 192c-4.266667-8.533333-12.8-10.666667-21.333333-10.666667z"  horiz-adv-x="1024" />

    
    <glyph glyph-name="xinwen" unicode="&#59018;" d="M63.563529-45.201016V570.881382c0.701426 1.397732 1.797084 2.595788 1.99676 4.095918 6.788984 47.830083 40.242395 76.9879 88.267034 76.987901h223.068819c-4.095918 5.790604-6.589308 9.287494-9.185096 12.779264-41.839803 56.718226-83.97656 113.134377-125.114938 170.246835-5.693326 7.889762-8.98542 19.373693-8.98542 29.157817 0 14.279394 12.282634 26.362353 25.660927 29.055419 16.47583 3.297214 29.157817-2.698186 39.141617-16.276155C351.235215 805.034779 404.354153 733.443251 457.078858 661.549649c5.094298-6.98866 10.285874-10.086198 19.071619-9.784124 23.566889 0.599028 47.231055 0.701426 70.895222 0 9.784124-0.302074 15.375052 3.194816 20.971101 10.884902 52.422632 71.591528 105.044939 143.085778 158.363552 213.981 5.790604 7.690086 16.076478 14.079718 25.461251 16.573109 14.678746 3.896242 27.360733-3.097538 34.948421-16.373433 7.889762-13.680366 6.092678-27.258335-3.297214-39.940321a68256.764785 68256.764785 0 0 1-127.608328-172.945021c-2.49851-3.297214-4.592548-6.891382-7.787364-11.780884 77.085178 0 151.574569 0.102398 226.166357 0 38.941941-0.102398 71.391852-24.964621 81.9798-62.606108 1.699806-6.092678 3.097538-12.282634 4.592548-18.370193v-616.087518c-4.295594-13.281014-6.98866-27.458011-13.178616-39.740645-12.379912-24.263195-34.948421-36.044079-60.112718-43.334814H137.054539c-2.595788 0.99838-5.094298 2.099158-7.690086 2.897863-33.048939 9.9838-53.917642 31.651207-62.309154 65.201895-1.392612 4.587428-2.390992 9.681726-3.49177 14.673627z m449.235175 621.376372H218.235635c-44.834943 0-74.289714-29.357493-74.386992-73.98764v-398.50723c0-45.034619 29.854123-75.088418 74.99114-75.088418 195.610808-0.102398 391.119218-0.102398 586.730026 0 45.131897 0 74.99114 30.156197 74.99114 75.088418V500.887262c0 46.232675-29.055419 75.190816-75.590168 75.190816-97.462371 0.097278-194.817224 0.097278-292.172077 0.097278z m44.635267-624.171836c0.199676 25.363973-20.372073 46.329953-45.234295 46.329953-24.365593 0-45.034619-20.669027-45.131897-45.234295-0.199676-25.563649 19.972721-46.032999 45.234295-45.930601 24.759825 0.097278 44.932221 20.069999 45.131897 44.834943z m-176.441911 27.657687c-15.078098 0.102398-26.961381-11.683606-26.961381-26.858983-0.102398-15.175376 11.683606-27.161057 26.659307-27.258335 14.776024-0.102398 27.058659 12.180236 27.258335 26.961381 0.00512 14.776024-12.077838 27.053539-26.956261 27.155937z m289.473891-26.961381a26.787304 26.787304 0 0 1-26.961381 26.961381c-14.878422 0-27.058659-12.282634-26.961381-27.058659 0.102398-14.678746 12.48231-27.058659 27.161057-27.058659 14.776024-0.00512 26.761705 12.077838 26.761705 27.155937zM712.915022 427.739285c-18.830983-86.633787-37.129497-171.055779-55.827364-256.50175-4.377512-0.51199-8.616788-0.337913-12.728065-1.356773-12.466951-2.887622-18.165397 3.568569-21.216856 19.363453-6.763385 33.97564-15.119058 67.439291-24.135197 106.847143-10.342193-45.357173-19.49145-84.765025-28.640707-125.022779h-29.04006c-18.431631 84.427111-36.863263 169.361093-55.827363 255.820803h48.398392c7.162737-37.539089 14.320354-74.402352 21.349973-111.265614 0.926701-0.337913 1.858523-0.51199 2.652107-0.849903 5.703566 25.9886 11.402012 51.808244 17.105578 77.801963 8.089438 37.032219 8.089438 37.032219 40.442071 34.144598 7.956321-37.032219 16.045759-74.571309 25.461251-118.228676 7.290734 37.539089 14.320354 69.308054 19.358333 101.583888 2.385872 15.119058 7.423852 19.194496 18.564748 18.00668 10.741545-1.361893 21.616208-0.343033 34.083159-0.343033z m-447.678727-0.675826h48.00416v-257.182697c-14.320354 0-28.246475-1.01886-42.034359 0.51199-4.377512 0.51199-10.075958 6.794104-12.200716 12.400392-15.380172 38.732025-30.099878 77.970921-47.471691 116.871903v-128.079359h-47.205456V427.739285c14.719706 0 28.773825 1.01886 42.699946-0.680946 4.244395-0.51199 9.548609-7.812964 11.668247-13.588208 14.98594-39.919842 29.173177-80.177596 46.544989-120.266395l-0.00512 133.859723z m554.02412-69.645967c-2.119638 6.287234-3.711926 13.081338-6.49715 18.687626-7.290734 14.269155-23.075378 16.98782-32.485751 6.287234-8.355673-9.51277-8.48879-27.857363 1.459171-38.557949 7.290734-7.644007 16.839343-11.719446 25.195016-17.837723 14.98594-10.869543 31.825283-18.856583 44.159117-33.294694 32.618868-38.051079 21.349973-101.583888-20.423271-119.928481-23.735845-10.531629-47.871043-9.850683-71.473771 1.699806-22.542909 11.043619-35.803444 38.051079-35.137857 71.176816h44.025999c1.459171-5.775244 1.725405-14.269155 5.171097-18.175636 6.763385-7.644007 14.852823-16.47583 23.203376-17.837724 5.836683-1.01886 16.573109 8.155997 18.165397 15.456971 2.119638 9.343813-0.133117 23.781924-4.904862 31.594888-5.964681 9.681726-16.311994 15.119058-25.195016 21.401172-12.728065 9.174857-26.387952 16.137917-38.455551 26.331634-18.964101 15.968961-26.654187 39.750885-22.676027 68.289194 3.578808 25.819644 16.445111 43.48841 35.670327 51.98232 27.181536 12.062479 54.368193 11.719446 79.696326-7.47505 16.706226-12.738305 25.461251-32.782704 26.254835-59.452251-15.646407-0.348153-30.632347-0.348153-45.751405-0.348153z m-419.959601-32.618868h63.118098v-42.126517H399.167697v-71.345774h73.332293v-40.938701c-31.692166 0-63.51745-1.868763-95.076498 0.849903-15.646407 1.356773-26.654187 18.00668-26.920422 38.732026-0.793584 71.852643-0.266235 143.710406-0.266235 216.412951h119.611048v-39.750885H399.300814v-61.833003z"  horiz-adv-x="1024" />

    
    <glyph glyph-name="dianhua" unicode="&#59394;" d="M666.202065 187.112727c1.629091 1.536 19.456 18.804364 24.669091 23.738182 9.681455 9.029818 17.780364 16.011636 26.065455 22.062546 58.088727 42.821818 118.690909 32.302545 210.990545-44.032 57.111273-47.290182 80.523636-94.580364 71.307637-142.429091-6.842182-35.84-27.927273-63.720727-67.956364-100.910546-2.606545-2.327273-25.786182-23.365818-31.650909-28.997818-92.765091-88.762182-366.08 20.014545-592.663273 252.648727C79.822429 402.385455-20.901935 678.586182 73.073338 768.605091l12.334546 12.101818 13.358545 13.451636C145.96352 841.309091 177.893702 862.72 220.529338 863.418182c42.589091 0.651636 83.781818-24.250182 124.648727-76.334546 86.248727-110.126545 83.735273-170.821818 13.637819-239.104-5.026909-5.026909-23.04-21.876364-24.715637-23.552-17.221818-16.523636 32.628364-95.092364 133.166546-198.283636 101.748364-104.354909 180.084364-156.997818 198.888727-139.077818h0.046545z"  horiz-adv-x="1024" />

    
    <glyph glyph-name="licheng" unicode="&#59157;" d="M842.796522-100.173913c-9.48313 0-18.877217 2.493217-27.247305 7.568696l-278.216347 168.292174-109.078261-125.239653a51.734261 51.734261 0 0 0-58.011826-14.60313 52.224 52.224 0 0 0-34.192696 49.285565v243.222261c0 21.014261 9.037913 40.915478 24.976696 54.717217l441.566608 382.530783a32.946087 32.946087 0 0 0 46.302609-3.294609 32.946087 32.946087 0 0 0-3.250087-46.302608l-441.744696-382.753392a6.678261 6.678261 0 0 1-2.270608-4.897391v-208.228174l93.317565 107.163826a52.758261 52.758261 0 0 0 66.871652 10.507131l271.493565-164.151653 160.545392 847.916522L82.810435 435.066435l196.207304-117.982609c15.582609-9.349565 20.569043-29.606957 11.174957-45.056a32.723478 32.723478 0 0 0-45.011479-11.130435L26.935652 392.147478a52.001391 52.001391 0 0 0-25.288348 48.795826c1.469217 19.856696 13.623652 36.953043 31.877566 44.699826L990.875826 891.547826a52.669217 52.669217 0 0 0 72.303304-58.145391l-168.559304-890.657392a52.847304 52.847304 0 0 0-51.778783-42.918956z"  horiz-adv-x="1068" />

    
    <glyph glyph-name="arrow-left-bold" unicode="&#59013;" d="M384 384L731.733333 693.333333c17.066667 14.933333 19.2 42.666667 4.266667 59.733334-14.933333 17.066667-42.666667 19.2-59.733333 4.266666l-384-341.333333c-10.666667-8.533333-14.933333-19.2-14.933334-32s4.266667-23.466667 14.933334-32l384-341.333333c8.533333-6.4 19.2-10.666667 27.733333-10.666667 12.8 0 23.466667 4.266667 32 14.933333 14.933333 17.066667 14.933333 44.8-4.266667 59.733334L384 384z"  horiz-adv-x="1024" />

    
    <glyph glyph-name="arrow-right" unicode="&#59015;" d="M731.733333 416l-384 341.333333c-17.066667 14.933333-44.8 14.933333-59.733333-4.266666-14.933333-17.066667-14.933333-44.8 4.266667-59.733334L640 384 292.266667 74.66666699999996c-17.066667-14.933333-19.2-42.666667-4.266667-59.733334 8.533333-8.533333 19.2-14.933333 32-14.933333 10.666667 0 19.2 4.266667 27.733333 10.666667l384 341.333333c8.533333 8.533333 14.933333 19.2 14.933334 32s-4.266667 23.466667-14.933334 32z"  horiz-adv-x="1024" />

    


  </font>
</defs>
</svg>
